<svg width="285" height="71" viewBox="0 0 285 71" fill="none" xmlns="http://www.w3.org/2000/svg">
<path d="M213.757 71L285.007 6.21716e-07H242.124L170.877 71H213.76H213.757ZM203.542 30.9205H117.289C91.0027 30.9205 86.4023 32.3095 75.1425 43.5289C64.6122 54.0222 47.5069 71.0012 47.5069 71.0012H84.8705L93.7841 62.1188C99.6444 56.2791 102.667 55.6742 114.972 55.6742H178.703L203.54 30.9212L203.542 30.9205ZM73.993 38.4657C66.2162 45.7773 49.2953 62.156 40.1753 71.0002H0.00694275C0.00694275 71.0002 32.1929 39.0195 50.0838 21.4706C68.5153 3.98689 77.7027 -0.000946045 111.511 -0.000946045H234.574L207.929 26.5507H114.012C90.257 26.5507 84.9203 28.1911 73.9953 38.4654L73.993 38.4657Z" fill="white"/>
</svg>
